<?xml version="1.0" encoding="UTF-8" standalone="no"?><!DOCTYPE svg PUBLIC "-//W3C//DTD SVG 1.1//EN" "http://www.w3.org/Graphics/SVG/1.1/DTD/svg11.dtd"><svg width="100%" height="100%" viewBox="0 0 2084 2084" version="1.1" xmlns="http://www.w3.org/2000/svg" xmlns:xlink="http://www.w3.org/1999/xlink" xml:space="preserve" xmlns:serif="http://www.serif.com/" style="fill-rule:evenodd;clip-rule:evenodd;stroke-linecap:round;stroke-linejoin:round;stroke-miterlimit:1.5;"><rect id="Logo" x="0" y="0" width="2083.33" height="2083.33" style="fill:none;"/><g id="globe"><clipPath id="_clip1"><rect x="41.667" y="41.667" width="2000" height="2000"/></clipPath><g clip-path="url(#_clip1)"><circle cx="1041.67" cy="1041.67" r="1000" style="fill:#ff9969;"/><clipPath id="_clip2"><path d="M2455.6,1041.67l-1413.94,-1413.94l-706.968,706.969l1413.94,1413.94l706.968,-706.968Z"/></clipPath><g clip-path="url(#_clip2)"><path d="M1748.77,334.56c390.263,390.263 390.263,1023.95 0,1414.21c-390.262,390.263 -1023.95,390.263 -1414.21,0c-390.263,-390.262 -390.263,-1023.95 -0,-1414.21c390.263,-390.263 1023.95,-390.263 1414.21,-0Z" style="fill:#ff6969;"/></g></g></g><g><path d="M394.983,394.983l-353.316,-353.316" style="fill:none;stroke:#000;stroke-width:64.85px;"/><path d="M2041.67,2041.67l-1519.98,-1519.98" style="fill:none;stroke:#000;stroke-width:64.85px;"/></g><g><path d="M1474.15,1240.82l-1139.45,-1139.45" style="fill:none;stroke:#521a00;stroke-width:64.85px;"/><path d="M1931.8,1698.47l-353.317,-353.316" style="fill:none;stroke:#521a00;stroke-width:64.85px;"/></g><g><path d="M563.524,787.841l1139.45,1139.45" style="fill:none;stroke:#4b0000;stroke-width:64.85px;"/><path d="M105.873,330.191l353.317,353.316" style="fill:none;stroke:#4b0000;stroke-width:64.85px;"/></g></svg>